<svg xmlns="http://www.w3.org/2000/svg" xmlns:xlink="http://www.w3.org/1999/xlink" id="Outline" x="0px" y="0px" viewBox="0 0 512 227.5" style="enable-background:new 0 0 512 227.5;" xml:space="preserve"><style type="text/css">	.st0{fill:#F6F3EE;}</style><g>	<g>		<path id="XMLID_00000038412156974622017730000009332382129910175373_" class="st0" d="M168.7,178.3c0-2.4,0.7-4.6,2.2-6.6   c1.4-2,3.2-3.7,5.3-5.3s4.3-2.9,6.7-4.1c2.4-1.2,4.5-2.1,6.3-3c1.4-0.6,2.7-1.2,3.9-1.7c1.2-0.6,2.3-1.2,3.4-1.9   c0.7-0.5,1.3-1.3,1.8-2.3s0.7-2,0.6-3c-0.1-1.7-0.3-3.4-0.6-4.9c-0.4-1.5-0.9-2.9-1.7-4c-0.8-1.2-1.8-2.1-3.2-2.7   c-1.3-0.7-3-1-5.1-1c-1.3,0-2.6,0.1-4,0.4c-1.4,0.3-2.6,0.7-3.8,1.3s-2.1,1.4-2.9,2.4c-0.8,1-1.2,2.3-1.2,3.8l0.1,3.5   c0,1-0.2,1.8-0.7,2.5c-0.4,0.7-1.2,1-2.3,1c-1,0-1.7-0.4-2.2-1.1c-0.4-0.7-0.6-1.6-0.6-2.5c0-1.9,0.5-3.6,1.6-5.1s2.4-2.7,4.1-3.7   c1.7-1,3.6-1.8,5.7-2.4c2.1-0.5,4.1-0.8,6.1-0.8c1.5,0,3.1,0.1,4.7,0.3c1.6,0.2,3,0.6,4.4,1.2c1.3,0.5,2.6,1.3,3.7,2.2   c1.1,0.9,2,2.1,2.6,3.6c0.1,0.4,0.3,1.3,0.6,2.6c0.3,1.4,0.4,3.7,0.4,7v18.4c0,1.8,0,3.3,0,4.5s0,2.1,0,2.9c0,0.7,0.1,1.3,0.1,1.7   s0.1,0.7,0.1,0.9c0.3,1.3,0.7,2.4,1.4,3.3c0.7,0.9,1.7,1.3,3.2,1.3h0.6c-1.1,1-2.3,1.9-3.6,2.5s-2.7,1-4.3,1c-1,0-2-0.2-2.8-0.6   c-0.8-0.4-1.7-0.8-2.5-1.2c-1.2-0.6-2.3-1.1-3.2-1.3c-0.9-0.3-1.7-0.4-2.5-0.4c-1,0-1.9,0.2-2.7,0.5c-0.8,0.4-1.6,0.7-2.5,1.2   c-0.8,0.4-1.8,0.8-2.8,1.2s-2.3,0.5-3.7,0.5c-3.5,0-6.2-1.1-8-3.4C169.6,184.6,168.7,181.7,168.7,178.3z M177.6,184.1   c1,1,2,1.8,3.2,2.5c1.2,0.6,2.4,0.9,3.7,0.9c1,0,1.9-0.2,2.9-0.6c0.8-0.3,1.5-0.5,2.2-0.7c0.7-0.1,1.3-0.2,1.9-0.2   c1.2,0,2.2,0.2,3.2,0.6c1,0.4,1.9,0.8,2.8,1.3c0.5,0.3,1.1,0.6,1.7,0.9c0.6,0.3,1.2,0.4,1.8,0.6c-0.1-0.1-0.2-0.1-0.2-0.2   c0-0.1-0.1-0.2-0.2-0.3c-0.3-0.3-0.6-0.9-0.9-1.8c-0.3-0.9-0.4-2.1-0.5-3.8v-28.5c-1.2,1.2-2.5,2.1-4.1,2.9   c-1.6,0.8-3.3,1.6-5.2,2.5c-2.4,1-4.8,2.3-7.3,3.9c-2.5,1.6-4.5,3.5-6,5.5c-1.5,2.1-2.3,4.3-2.4,6.8   C173.9,178.8,175.1,181.4,177.6,184.1z"></path>		<path id="XMLID_00000036939312711716746760000008127262327780618628_" class="st0" d="M292,178.3c0-2.4,0.7-4.6,2.2-6.6   c1.4-2,3.2-3.7,5.3-5.3c2.1-1.6,4.3-2.9,6.7-4.1c2.4-1.2,4.5-2.1,6.3-3c1.4-0.6,2.7-1.2,3.9-1.7c1.2-0.6,2.3-1.2,3.4-1.9   c0.7-0.5,1.3-1.3,1.8-2.3s0.7-2,0.6-3c-0.1-1.7-0.3-3.4-0.6-4.9c-0.4-1.5-0.9-2.9-1.7-4c-0.8-1.2-1.8-2.1-3.2-2.7   c-1.3-0.7-3-1-5.1-1c-1.3,0-2.6,0.1-4,0.4c-1.4,0.3-2.6,0.7-3.8,1.3c-1.2,0.6-2.1,1.4-2.9,2.4s-1.2,2.3-1.2,3.8l0.1,3.5   c0,1-0.2,1.8-0.7,2.5c-0.4,0.7-1.2,1-2.3,1c-1,0-1.7-0.4-2.2-1.1c-0.4-0.7-0.6-1.6-0.6-2.5c0-1.9,0.5-3.6,1.6-5.1s2.4-2.7,4.1-3.7   s3.6-1.8,5.7-2.4c2.1-0.5,4.1-0.8,6.1-0.8c1.5,0,3.1,0.1,4.7,0.3s3,0.6,4.4,1.2c1.3,0.5,2.6,1.3,3.7,2.2s2,2.1,2.6,3.6   c0.1,0.4,0.3,1.3,0.6,2.6c0.3,1.4,0.4,3.7,0.4,7v18.4c0,1.8,0,3.3,0,4.5s0,2.1,0,2.9c0,0.7,0.1,1.3,0.1,1.7s0.1,0.7,0.1,0.9   c0.3,1.3,0.7,2.4,1.4,3.3c0.7,0.9,1.7,1.3,3.2,1.3h0.6c-1.1,1-2.3,1.9-3.6,2.5c-1.3,0.6-2.7,1-4.3,1c-1,0-2-0.2-2.8-0.6   c-0.8-0.4-1.7-0.8-2.5-1.2c-1.2-0.6-2.3-1.1-3.2-1.3c-0.9-0.3-1.7-0.4-2.5-0.4c-1,0-1.9,0.2-2.7,0.5c-0.8,0.4-1.6,0.7-2.5,1.2   c-0.8,0.4-1.8,0.8-2.8,1.2s-2.3,0.5-3.7,0.5c-3.5,0-6.2-1.1-8-3.4C292.9,184.6,292,181.7,292,178.3z M300.9,184.1   c1,1,2,1.8,3.2,2.5c1.2,0.6,2.4,0.9,3.7,0.9c1,0,1.9-0.2,2.9-0.6c0.8-0.3,1.5-0.5,2.2-0.7c0.7-0.1,1.3-0.2,1.9-0.2   c1.2,0,2.2,0.2,3.2,0.6s1.9,0.8,2.8,1.3c0.5,0.3,1.1,0.6,1.7,0.9c0.6,0.3,1.2,0.4,1.8,0.6c-0.1-0.1-0.2-0.1-0.2-0.2   c0-0.1-0.1-0.2-0.2-0.3c-0.3-0.3-0.6-0.9-0.9-1.8c-0.3-0.9-0.4-2.1-0.5-3.8v-28.5c-1.2,1.2-2.5,2.1-4.1,2.9   c-1.6,0.8-3.3,1.6-5.2,2.5c-2.4,1-4.8,2.3-7.3,3.9c-2.5,1.6-4.5,3.5-6,5.5c-1.5,2.1-2.3,4.3-2.4,6.8   C297.2,178.8,298.4,181.4,300.9,184.1z"></path>		<path id="XMLID_00000124854474050319996440000005026395298171148463_" class="st0" d="M426,164.5c0-3.5,0.4-6.9,1.3-10.3   c0.9-3.3,2.3-6.3,4.1-8.8c1.9-2.6,4.2-4.6,7.1-6.1c2.8-1.5,6.2-2.3,10-2.3c2.7,0,5.2,0.4,7.4,1.3c2.3,0.9,4.2,2.1,5.9,3.7   c1.7,1.6,3,3.5,4,5.7s1.6,4.7,1.7,7.4c-3.7,0-7.5,0-11.2,0c-3.8,0-7.5,0.3-11.1,1c-5.5,1.1-9.2,3-11,5.7c-0.8,1.2-1.2,2.5-1.4,3.9   c-0.2,1.4-0.2,2.8,0.1,4.2c0.3,1.4,0.7,2.7,1.4,4c0.7,1.3,1.4,2.5,2.3,3.5c4.3,5.1,9.5,7.6,15.6,7.6c3.9,0,6.9-0.8,9-2.3   s3.7-4.1,4.8-7.6c0-0.3,0.2-0.3,0.5-0.2c0.3,0,0.3,0.1,0.2,0.4c-0.6,2.1-1.6,4.1-2.7,6c-1.2,1.9-2.6,3.5-4.3,4.8   c-1.7,1.3-3.5,2.4-5.5,3.2s-4.1,1.2-6.4,1.2c-5.9,0-11-2.3-15.2-6.8C428.2,178.8,426,172.5,426,164.5z M432.2,170   c-0.1-0.5-0.2-1-0.2-1.4s0-0.9,0-1.4c0-2.1,0.5-3.9,1.4-5.4c1-1.5,2.2-2.7,3.7-3.6c1.5-0.9,3.3-1.6,5.3-2.2c2-0.5,4-0.9,6.1-1.2   c2-0.3,4.1-0.4,6-0.4c2,0,3.7,0,5.1,0v-0.8c-0.1-1.9-0.3-3.5-0.4-4.8c-0.2-1.3-0.4-2.4-0.8-3.3c-1.2-2.7-2.8-4.6-4.8-5.9   c-2-1.2-4.1-1.8-6.4-1.8c-1.5,0-3,0.2-4.5,0.7c-1.5,0.4-3,1.1-4.5,1.9c-2.3,1.2-4.1,2.9-5.4,5.1c-1.3,2.2-2.2,4.6-2.6,7.3   s-0.5,5.5-0.1,8.5C430.4,164.2,431.1,167.1,432.2,170z"></path>		<path id="XMLID_00000046304202191692030610000017130376032653265303_" class="st0" d="M88.7,142.8l9.8-3.9h0.1v41.5   c0,2.4,0.1,4.2,0.3,5.3c0.2,1.1,0.4,1.9,0.5,2.3c0.5,1,1.2,1.8,1.9,2.5h-11c1.3-1.3,2-2.9,2.3-4.8c0.2-1.9,0.3-3.7,0.3-5.3v-20.9   c0-3.1,0-5.6-0.1-7.5c-0.1-2-0.2-3.4-0.4-4.4c-0.3-1.1-0.7-2.1-1.2-2.9C90.6,143.7,89.8,143.2,88.7,142.8z M91.1,129   c0-1.2,0.4-2.1,1.2-2.8c0.8-0.7,1.7-1.1,2.8-1.1c1.1,0,2,0.4,2.8,1.2c0.8,0.8,1.2,1.7,1.2,2.8c0,1.1-0.4,2-1.2,2.7   c-0.8,0.7-1.7,1.1-2.8,1.1c-1.1,0-2-0.4-2.8-1.1C91.4,131,91.1,130.1,91.1,129z"></path>		<path id="XMLID_00000167375981600960251790000012277691064593084562_" class="st0" d="M150.7,142.8l9.8-3.9h0.1v41.5   c0,2.4,0.1,4.2,0.3,5.3s0.4,1.9,0.5,2.3c0.5,1,1.2,1.8,1.9,2.5h-11c1.3-1.3,2-2.9,2.3-4.8c0.2-1.9,0.3-3.7,0.3-5.3v-20.9   c0-3.1,0-5.6-0.1-7.5c-0.1-2-0.2-3.4-0.4-4.4c-0.3-1.1-0.7-2.1-1.2-2.9C152.7,143.7,151.8,143.2,150.7,142.8z M153.1,129   c0-1.2,0.4-2.1,1.2-2.8c0.8-0.7,1.7-1.1,2.8-1.1s2,0.4,2.8,1.2c0.8,0.8,1.2,1.7,1.2,2.8c0,1.1-0.4,2-1.2,2.7s-1.7,1.1-2.8,1.1   s-2-0.4-2.8-1.1C153.5,131,153.1,130.1,153.1,129z"></path>		<path id="XMLID_00000116229956149462685140000000769352971924894616_" class="st0" d="M80.3,110.2L80.3,110.2l0.1,69.9   c0,0.8,0,1.6,0,2.6s0.1,1.9,0.3,2.8c0.2,0.9,0.4,1.8,0.8,2.6s0.9,1.5,1.5,2.1H72c0.4-0.3,0.7-0.7,1-1.1c0.3-0.4,0.5-0.9,0.8-1.4   c0.3-0.8,0.5-1.8,0.7-3c0.1-1.2,0.2-2.8,0.2-4.6v-49.4c0-2.1,0-3.9,0-5.2c0-1.4-0.1-2.5-0.1-3.4s-0.1-1.5-0.1-2   c-0.1-0.4-0.1-0.8-0.2-1.1c-0.3-1.9-0.9-3.3-2-4c-0.4-0.4-1-0.8-1.5-1L80.3,110.2z"></path>		<path id="XMLID_00000010311532105349053170000006807789436271091602_" class="st0" d="M372.1,143l9.5-3.9h0.2v11.6   c0.7-1.9,1.6-3.5,2.8-4.9c1.2-1.4,2.5-2.7,4-3.7s3.2-1.7,4.9-2.3c1.8-0.5,3.5-0.8,5.3-0.8c2.6,0,5.1,0.5,7.6,1.6s4.8,2.7,6.8,4.9   s3.6,5,4.8,8.4c1.2,3.4,1.8,7.4,1.8,12c0,3-0.5,6.1-1.5,9.1c-1,3.1-2.5,5.9-4.4,8.4s-4.2,4.6-6.9,6.3c-2.7,1.7-5.7,2.7-9,2.9   c-2,0.2-3.7,0.1-5.2-0.2c-1.5-0.4-2.8-0.9-4.1-1.6c-1.2-0.7-2.4-1.6-3.6-2.5c-1.1-1-2.3-2.1-3.5-3.3v15.1c0,1.1,0,2.4-0.1,3.9   s0,3.1,0.1,4.7c0.2,1.6,0.4,3,0.9,4.4c0.4,1.4,1.1,2.5,2.1,3.2h-11.2c0.8-0.6,1.4-1.4,1.9-2.6c0.2-0.4,0.4-1,0.5-2   c0.2-0.9,0.2-2.5,0.2-4.8V160c0-2.2,0-4,0-5.4s-0.1-2.6-0.1-3.5c-0.1-0.9-0.1-1.6-0.2-2s-0.1-0.8-0.2-1.1c-0.3-1.8-0.9-3.2-2-4.1   C373.2,143.5,372.7,143.2,372.1,143z M381.8,177.1c0.1,1.5,0.4,2.9,0.8,4.2s0.9,2.6,1.6,3.8c1.3,2.6,3.3,4.5,5.8,5.6   s5.2,1.5,8.1,1.2s5.3-1.3,7.3-3.1s3.5-4,4.7-6.6s2-5.3,2.5-8.3c0.5-2.9,0.8-5.6,0.8-8.1c0-4-0.6-7.5-1.7-10.5   c-1.1-2.9-2.6-5.4-4.4-7.4s-3.8-3.5-6-4.4c-2.2-1-4.4-1.4-6.6-1.4c-3.2,0-6,1-8.5,3s-3.9,5-4.4,8.9L381.8,177.1L381.8,177.1z"></path>		<path id="XMLID_00000054237182800249034160000009136503152877541249_" class="st0" d="M338,141.9l9.9-4v13c0.6-1.5,1.5-3,2.7-4.5   s2.6-2.9,4.1-4.1c1.5-1.2,3.2-2.3,4.9-3.1c1.7-0.8,3.3-1.2,4.9-1.2c1.4,0,2.6,0.4,3.5,1.2c0.8,0.7,1.2,1.6,1.4,2.6   c0.2,1.1-0.1,2-0.9,2.8c-0.6,0.6-1.3,1-2.1,1c-0.6,0-1.2-0.1-1.7-0.4c-0.6-0.3-1.1-0.7-1.6-1.1c-1.7-1.3-3.3-1.9-4.9-1.9   c-1.2,0-2.4,0.3-3.4,1c-1.1,0.6-2,1.5-2.9,2.5s-1.6,2.2-2.3,3.4c-0.7,1.2-1.2,2.5-1.6,3.8v26c0,2.1,0.2,4,0.6,5.9s1.5,3.4,3.2,4.7   h-12.1c1-0.8,1.8-2.1,2.3-3.8c0.1-0.3,0.2-0.8,0.3-1.6c0.1-0.8,0.1-2.4,0.1-4.6v-21c0-2.2,0-4,0-5.3c0-1.4-0.1-2.5-0.1-3.4   s-0.1-1.5-0.1-2c0-0.4-0.1-0.8-0.1-1c-0.3-1.2-0.7-2.2-1.3-3C340,142.8,339.1,142.2,338,141.9z"></path>		<path id="XMLID_00000096018732939983991660000016136128472015179925_" class="st0" d="M470.6,143.1l9.9-4v13   c0.6-1.5,1.5-3,2.7-4.5s2.6-2.9,4.1-4.1c1.5-1.2,3.2-2.3,4.9-3.1c1.7-0.8,3.3-1.2,4.9-1.2c1.4,0,2.6,0.4,3.5,1.2   c0.8,0.7,1.2,1.6,1.4,2.6c0.2,1.1-0.1,2-0.9,2.8c-0.6,0.6-1.3,1-2.1,1c-0.6,0-1.2-0.1-1.7-0.4c-0.6-0.3-1.1-0.7-1.6-1.1   c-1.7-1.3-3.3-1.9-4.9-1.9c-1.2,0-2.4,0.3-3.4,1c-1.1,0.6-2,1.5-2.9,2.5s-1.6,2.2-2.3,3.4c-0.7,1.2-1.2,2.5-1.6,3.8v26   c0,2.1,0.2,4,0.6,5.9s1.5,3.4,3.2,4.7h-12.1c1-0.8,1.8-2.1,2.3-3.8c0.1-0.3,0.2-0.8,0.3-1.6c0.1-0.8,0.1-2.4,0.1-4.6v-21   c0-2.2,0-4,0-5.3c0-1.4-0.1-2.5-0.1-3.4s-0.1-1.5-0.1-2c0-0.4-0.1-0.8-0.1-1c-0.3-1.2-0.7-2.2-1.3-3   C472.6,144,471.7,143.4,470.6,143.1z"></path>		<path id="XMLID_00000103971767139909247450000014161427906542179495_" class="st0" d="M114.7,139.1c-1,1.2-1.5,2.5-1.5,4.1   s0.5,3.5,1.4,5.8l14,33.4l16.7-39.9c0.2-0.5,0.2-1.1,0-1.6c-0.2-0.6-0.5-1.1-1-1.6c-0.3-0.1-0.4-0.2-0.3-0.2h4.7   c-0.5,0.4-1,0.9-1.5,1.5c-0.5,0.5-0.9,1.2-1.2,2.1l-19.9,47.7l-18.6-44c-0.5-1.4-1.2-2.8-2-4.1s-1.9-2.4-3.2-3.1h12.4V139.1z"></path>		<path id="XMLID_00000051363699545511564690000002298400502094148780_" class="st0" d="M249.4,131c-1,0.7-1.8,1.6-2.2,2.8   c-0.2,0.4-0.3,1.1-0.4,2c-0.2,0.9-0.2,2.5-0.2,4.8v19.3H279v-19.3c0-2.3-0.1-3.9-0.2-4.9c-0.1-0.9-0.3-1.6-0.5-2   c-0.4-1-1.2-1.9-2.2-2.6h11.4c-1,0.7-1.8,1.6-2.2,2.8c-0.1,0.4-0.3,1.1-0.4,2s-0.2,2.5-0.2,4.7v40.3c0,2.3,0.1,4,0.3,4.9   c0.2,0.9,0.3,1.6,0.5,2c0.3,1,1.1,1.8,2.2,2.5H276c0.2-0.2,0.5-0.3,0.7-0.6c0.2-0.2,0.4-0.5,0.7-0.7c1-1.3,1.5-4,1.5-8.2v-20.5   h-32.4v20.5c0,2.3,0.1,4,0.3,4.9s0.3,1.6,0.4,2c0.4,1,1.2,1.9,2.3,2.5h-11.4c0.5-0.3,1-0.7,1.3-1.3c1-1.3,1.5-4,1.5-8.2v-40.3   c0-2.3-0.1-3.9-0.2-4.9c-0.2-0.9-0.3-1.6-0.4-2c-0.4-1-1.2-1.9-2.2-2.6h11.3V131z"></path>		<path id="XMLID_00000003095455518662661280000011339854410544920460_" class="st0" d="M10.9,158.8c0-9.5,3.2-17.2,9.6-23.1   c2.8-2.6,5.8-4.5,9-5.8s6.7-1.9,10.6-1.9c3.8,0,7.5,0.7,10.9,2.1s6.6,3.6,9.4,6.6c5.6,5.8,8.4,13.1,8.4,22c0,4.5-0.7,8.7-2.1,12.4   s-3.5,7.1-6.4,10.1c-2.8,2.9-6,5.1-9.6,6.7c-3.6,1.5-7.3,2.3-11.2,2.3s-7.6-0.7-11.1-2.2s-6.6-3.6-9.3-6.5   C13.7,175.6,10.9,168.1,10.9,158.8z M18.2,158.6c0,3.5,0.3,7.2,0.9,10.8c0.6,3.7,1.7,7,3.3,10c1.6,3,3.8,5.4,6.6,7.3   c2.8,1.9,6.3,2.8,10.5,2.8c4.3,0,7.9-0.8,10.8-2.5c2.8-1.7,5.1-3.9,6.7-6.7c1.6-2.8,2.8-5.9,3.5-9.5c0.7-3.5,1-7.2,1-10.9   c0-11.1-2.2-19.4-6.7-25c-1.8-2.3-3.9-4-6.3-4.9c-2.4-0.9-5.3-1.4-8.5-1.4c-4.3,0-7.9,0.9-10.7,2.6c-2.8,1.7-5.1,4-6.7,6.9   c-1.6,2.8-2.8,6-3.4,9.6C18.6,151.2,18.2,154.9,18.2,158.6z"></path>	</g>	<path class="st0" d="M268.5,13.3h-14.9c-12.2,0-22,9.9-22,22V77c0,12.2,9.9,22,22,22h14.9c12.2,0,22-9.9,22-22V35.3  C290.5,23.2,280.6,13.3,268.5,13.3z M251.4,87.7c0,1.5-0.1,2.7-0.2,3.8c-0.1,0.6-0.8,3.9-5.4,3c-6.2-2.8-10.6-9-10.6-16.3V63.6  c1.8,1.5,3.8,2.6,5.9,3.5c3.2,1.4,6.6,2,10.2,2h0.1V87.7z M250.8,44.3c0.1,0.4,0.3,1,0.4,1.9c0.1,0.9,0.2,2.4,0.2,4.5v17.9h-0.1  c-3.9,0-7.1-0.9-9.7-2.6c-2.5-1.7-4.6-4-6-6.7c-0.1-0.2-0.2-0.5-0.4-0.7l0,0V34.2c0-9.8,8-17.8,17.8-17.8h10.3  c0.7,0.6,1.3,1.3,1.9,2.1c4.1,5.1,6.2,12.7,6.2,22.9c0,3.4-0.3,6.7-0.9,10s-1.7,6.2-3.2,8.7s-3.6,4.6-6.2,6.2  c-1.4,0.8-3,1.4-4.7,1.8V50.6c0-2.1,0.1-3.5,0.2-4.4c0.1-0.8,0.3-1.5,0.4-1.8c0.4-1.1,1.1-1.9,2.1-2.5h-10.5  C249.7,42.5,250.4,43.3,250.8,44.3z M287,78.3c0,1.8-0.3,3.5-0.8,5.2c-2.2,7.3-9,12.7-17.1,12.7h-3.8l0,0c-7.3,0-8.8-5.1-8.8-5.1  c-0.1-0.8-0.1-1.9-0.1-3.3V68.9h24.4h0.6c1.5,0,5.5,0.5,5.5,3.7L287,78.3L287,78.3z M287,41.9v21.7v1.2c0,2.6-2.5,3.4-4.3,3.6l0,0  h-25.1c1.3-0.3,2.7-0.8,3.9-1.3c3.3-1.4,6.2-3.5,8.8-6.1c2.6-2.8,4.6-5.8,5.9-9.3c1.3-3.4,1.9-7.2,1.9-11.4  c0-8.1-2.6-14.9-7.7-20.2c-1.4-1.4-2.8-2.7-4.4-3.7h3.1c9.8,0,17.8,8,17.8,17.8v7.7H287z"></path>	<g>		<path class="st0" d="M490.2,189c0-1.3,0.4-2.3,1.3-3.2s1.9-1.3,3.2-1.3c1.3,0,2.3,0.4,3.2,1.3c0.9,0.9,1.3,2,1.3,3.2   c0,1.3-0.4,2.3-1.3,3.2s-2,1.3-3.2,1.3c-1.3,0-2.3-0.4-3.2-1.3C490.7,191.3,490.2,190.3,490.2,189z M490.9,189   c0,1.1,0.4,2,1.1,2.8c0.8,0.8,1.7,1.2,2.7,1.2c1.1,0,2-0.4,2.7-1.2c0.8-0.8,1.1-1.7,1.1-2.8s-0.4-2.1-1.1-2.8   c-0.8-0.8-1.7-1.2-2.7-1.2c-1.1,0-2,0.4-2.7,1.2C491.2,186.9,490.9,187.9,490.9,189z M494,189.4v2h-0.6v-5h1.6   c0.5,0,0.8,0.1,1.1,0.4c0.3,0.3,0.4,0.6,0.4,1.1c0,0.4-0.1,0.7-0.3,0.9c-0.2,0.3-0.5,0.4-0.8,0.5l1.2,2.1h-0.7l-1.1-2H494z    M494,188.9h0.9c0.3,0,0.6-0.1,0.8-0.3c0.2-0.2,0.3-0.4,0.3-0.7s-0.1-0.5-0.3-0.7c-0.2-0.2-0.4-0.3-0.8-0.3H494V188.9z"></path>	</g></g></svg>