<svg xmlns="http://www.w3.org/2000/svg" xmlns:xlink="http://www.w3.org/1999/xlink" id="Outline" x="0px" y="0px" viewBox="0 0 282 391.9" style="enable-background:new 0 0 282 391.9;" xml:space="preserve"><style type="text/css">	.st0{fill:#EEEBE4;}</style><g>	<path class="st0" d="M175.9,1.6h-67.7c-55.4,0-99.9,45-99.9,99.9V291c0,55.4,45,99.9,99.9,99.9h67.7c55.4,0,99.9-45,99.9-99.9  V101.6C275.8,46.6,230.9,1.6,175.9,1.6z M98.2,339.6c0,6.8-0.5,12.3-0.9,17.3c-0.5,2.7-3.6,17.7-24.5,13.6  c-28.2-12.7-48.2-40.9-48.2-74v-66.3c8.2,6.8,17.3,11.8,26.8,15.9c14.5,6.4,30,9.1,46.3,9.1h0.5V339.6z M95.5,142.5  c0.5,1.8,1.4,4.5,1.8,8.6c0.5,4.1,0.9,10.9,0.9,20.4v81.3h-0.5c-17.7,0-32.3-4.1-44.1-11.8c-11.4-7.7-20.9-18.2-27.3-30.4  c-0.5-0.9-0.9-2.3-1.8-3.2l0,0V96.6c0-44.5,36.3-80.9,80.9-80.9h46.8c3.2,2.7,5.9,5.9,8.6,9.5c18.6,23.2,28.2,57.7,28.2,104  c0,15.4-1.4,30.4-4.1,45.4c-2.7,15-7.7,28.2-14.5,39.5c-6.8,11.4-16.4,20.9-28.2,28.2c-6.4,3.6-13.6,6.4-21.4,8.2v-79.5  c0-9.5,0.5-15.9,0.9-20c0.5-3.6,1.4-6.8,1.8-8.2c1.8-5,5-8.6,9.5-11.4H85.5C90.5,134.3,93.7,137.9,95.5,142.5z M259.9,296.9  c0,8.2-1.4,15.9-3.6,23.6c-10,33.2-40.9,57.7-77.7,57.7h-17.3l0,0c-33.2,0-40-23.2-40-23.2c-0.5-3.6-0.5-8.6-0.5-15v-85.9h110.8  h2.7c6.8,0,25,2.3,25,16.8L259.9,296.9L259.9,296.9z M259.9,131.6v98.6v5.5c0,11.8-11.4,15.4-19.5,16.4l0,0h-114  c5.9-1.4,12.3-3.6,17.7-5.9c15-6.4,28.2-15.9,40-27.7c11.8-12.7,20.9-26.3,26.8-42.2c5.9-15.4,8.6-32.7,8.6-51.8  c0-36.8-11.8-67.7-35-91.8c-6.4-6.4-12.7-12.3-20-16.8h14.1c44.5,0,80.9,36.3,80.9,80.9v35H259.9z"></path></g></svg>