<svg xmlns="http://www.w3.org/2000/svg" width="574" height="138" viewBox="0 0 574 138" fill="none">
<path d="M134.527 136.849C130.336 136.269 125.871 134.203 123.043 131.534C120.669 129.295 119.066 126.734 117.958 123.411C117.238 121.251 117.156 120.559 117.141 116.51C117.126 112.599 117.216 111.714 117.827 109.758C119.532 104.301 122.865 99.8648 127.657 96.6763C131.075 94.4024 133.532 93.4222 142.54 90.7401C151.144 88.1781 155.349 86.5818 160.473 83.9334C168.43 79.8208 170.333 76.9784 169.999 69.7092C169.738 64.0432 168.553 60.9782 165.996 59.3566C162.111 56.8932 154.908 57.532 149.39 60.8292C146.753 62.4054 144.084 64.7556 139.807 69.2687C135.747 73.5531 133.961 74.7201 130.597 75.2878C123.43 76.4972 119.688 70.8759 123.754 65.0089C124.931 63.3099 128.777 60.3186 131.905 58.6694C140.711 54.0267 155.813 51.8884 166.221 53.8109C169.577 54.4308 174.302 55.8994 176.527 57.0139C182.747 60.1304 186.125 64.3158 188.008 71.2402L188.814 74.202L188.982 100.907L189.15 127.612L189.821 129.392C190.19 130.371 190.768 131.639 191.105 132.211C192.144 133.971 191.823 134.174 188.305 133.975C182.891 133.669 178.208 131.841 174.832 128.715C172.512 126.567 171.129 123.784 170.439 119.875L169.926 116.969L168.431 118.99C166.138 122.088 160.951 127.295 157.781 129.681C150.433 135.212 141.841 137.86 134.527 136.849ZM154.459 124.59C157.927 123.56 163.906 118.253 167.129 113.344C170.073 108.861 169.909 109.874 170.024 95.4006C170.079 88.4115 170.051 82.5003 169.96 82.2647C169.84 81.9514 169.168 82.3369 167.464 83.6976C163.416 86.9286 158.121 90.1978 152.23 93.1024C145.96 96.194 144.407 97.19 141.728 99.8353C134.13 107.34 134.956 119.143 143.378 123.411C147.039 125.266 150.825 125.669 154.459 124.59ZM277.311 136.763C276.463 136.638 274.855 136.241 273.737 135.88C267.165 133.757 263.26 129.887 260.995 123.251C259.975 120.264 259.808 114.042 260.658 110.682C261.783 106.234 263.551 103.108 266.768 99.8783C270.846 95.7844 274.137 94.17 285.164 90.8558C294.09 88.1726 298.56 86.5018 303.308 84.0742C308.917 81.2055 311.466 78.8038 312.462 75.4478C313.386 72.3368 312.841 64.923 311.489 62.1998C310.205 59.6154 307.515 58.1883 303.458 57.9389C296.753 57.527 291.055 60.5992 283.411 68.7465C281.468 70.8172 279.245 72.9313 278.47 73.4446C274.187 76.2815 268.206 76.1082 266.053 73.0848C265.037 71.6576 264.893 68.3306 265.772 66.6064C267.709 62.8098 274.055 58.4514 280.922 56.2021C291.147 52.8527 303.231 52.2052 312.383 54.5165C322.353 57.0345 327.93 61.5211 330.435 69.0382C331.75 72.9847 331.813 74.4017 331.818 100.271C331.826 127.578 331.799 127.177 333.771 131.33C334.596 133.068 334.747 133.625 334.448 133.833C334.236 133.98 332.78 134.031 331.213 133.946C327.889 133.766 323.845 132.687 321.177 131.269C318.854 130.034 316.217 127.446 315.155 125.358C314.284 123.645 313.227 120.061 313.21 118.76C313.187 117.131 312.755 117.257 311.154 119.357C305.396 126.907 297.205 133.147 289.909 135.544C285.9 136.86 281.13 137.322 277.311 136.763ZM297.827 124.403C300.295 123.489 302.701 121.703 305.767 118.509C309.045 115.093 311.498 111.59 312.152 109.39C312.53 108.114 312.609 105.641 312.609 95.0013C312.609 87.935 312.54 82.1534 312.455 82.1534C312.369 82.1534 311.323 82.9519 310.129 83.9277C306.499 86.8951 302.239 89.5455 296.256 92.5585C293.121 94.1377 289.677 96.0089 288.604 96.7166C284.425 99.4733 281.453 103.369 280.352 107.536C279.802 109.616 279.733 114.013 280.222 115.827C281.399 120.198 285.36 123.764 290.105 124.722C291.013 124.905 292.025 125.111 292.355 125.179C293.415 125.398 296.209 125.002 297.827 124.403ZM204.711 134.031C204.156 133.417 204.139 132.414 204.137 99.5996C204.134 63.8477 204.104 62.9789 202.724 58.2134C201.893 55.3456 201.962 55.2835 205.893 55.3519C211.469 55.4487 215.229 56.7823 218.09 59.678C221.099 62.7223 222.224 66.0251 222.503 72.6267C222.598 74.8958 222.781 76.7524 222.908 76.7524C223.035 76.7524 223.902 75.1675 224.833 73.2304C228.833 64.9121 234.382 58.5615 240.204 55.6381C243.978 53.7432 249.861 52.6866 253.005 53.3392C256.156 53.9933 257.508 55.7891 257.529 59.3493C257.545 61.8801 257.072 63.1504 255.524 64.7333C253.661 66.6384 251.357 67.4896 242.928 69.3865C234.402 71.3052 230.964 72.8433 227.518 76.2813C225.48 78.3151 224.179 80.7403 223.322 84.1037C222.835 86.0139 222.776 88.3983 222.673 110.434L222.56 134.663H213.922C205.518 134.663 205.267 134.644 204.711 134.031ZM0.409347 133.47C-0.178158 132.821 -0.174091 132.73 0.689369 127.206C1.12592 124.413 1.16507 118.797 1.07742 71.5459C0.987357 22.9795 0.940189 18.7927 0.456032 16.3659C-0.192856 13.1134 -0.0232155 12.6716 1.9731 12.4139C4.06148 12.1445 22.1091 11.6487 29.9895 11.6444C40.6691 11.6368 48.0024 12.3778 55.5169 14.2177C67.8593 17.2397 79.1074 23.2015 88.7412 31.8276C104.146 45.6212 111.086 66.0605 107.05 85.7541C104.223 99.5488 94.8653 112.24 80.6672 121.535C73.5797 126.176 63.1519 130.559 54.8429 132.39C47.825 133.937 45.3799 134.063 22.28 134.063C1.41503 134.063 0.933983 134.051 0.409347 133.47ZM42.1024 128.834C49.3874 127.816 53.5432 126.626 58.9288 124.017C70.6493 118.339 78.8856 106.954 81.8342 92.3553C82.9974 86.5958 83.2091 83.9675 83.2117 75.2522C83.2144 65.9659 82.964 63.0504 81.5582 56.0039C77.2832 34.5755 65.7376 21.8219 46.7842 17.5916C44.2386 17.0235 42.7374 16.9356 33.6337 16.8219L23.3568 16.6938V73.1705V129.647L31.0832 129.471C35.3327 129.374 40.2914 129.087 42.1024 128.834ZM347.609 133.833C347.531 133.706 347.721 132.525 348.031 131.207C348.341 129.89 348.736 127.799 348.909 126.561C349.105 125.166 349.329 108.587 349.5 82.9036C349.879 26.22 349.858 26.835 351.618 19.8457C354.21 9.55191 360.95 2.14091 369.36 0.338873C370.62 0.0690147 371.869 -0.0684231 372.135 0.0338509C372.821 0.296906 372.746 1.51333 371.861 4.46151C370.34 9.5285 369.995 13.3795 369.32 32.7945C368.861 45.9879 368.557 84.2538 368.911 84.2538C369.07 84.2538 369.448 83.5449 369.75 82.6785C373.804 71.0421 388.589 56.285 406.476 46.0224C421.795 37.2331 433.887 33.5256 451.565 32.1986C455.169 31.9279 455.225 32.2594 452.654 38.6455C451.824 40.7084 450.287 44.755 449.24 47.638C448.192 50.5209 447.089 53.1261 446.788 53.4273C446.352 53.863 445.448 54.0354 442.361 54.2714C429.923 55.2224 419.546 57.3594 407.726 61.4035C396.744 65.161 389.406 69.2162 384.322 74.3359C381.519 77.1591 380.4 79.1594 380.195 81.7136C380.004 84.0962 380.588 85.1544 383.043 86.87C392.796 93.687 411.741 96.9314 434.323 95.6524C452.855 94.6027 466.762 92.6556 505.094 85.7439C520.399 82.9841 527.026 82.2772 535.087 82.5447C544.231 82.8482 550.477 84.9363 556.354 89.6548C563.565 95.4448 567.382 103.8 568.109 115.384C568.294 118.334 568.262 118.76 567.853 118.76C567.595 118.76 566.979 118.172 566.485 117.453C562.633 111.855 555.247 107.712 546.111 106.024C537.717 104.474 523.869 104.727 512.445 106.64C510.878 106.902 505.274 108.04 499.993 109.168C473.675 114.789 459.941 116.857 440.132 118.181C433.318 118.636 417.623 118.639 412.827 118.184C396.02 116.596 384.987 112.783 376.733 105.71C374.287 103.614 371.351 100.039 370.276 97.8486C369.846 96.9717 369.388 96.2543 369.257 96.2543C369.126 96.2543 369.02 99.0276 369.02 102.417C369.02 112.536 368.141 117.642 365.524 122.722C364.392 124.922 363.549 126.053 361.528 128.085C358.699 130.931 356.816 132.132 353.364 133.289C351.144 134.033 347.921 134.338 347.609 133.833ZM478.279 53.0434C475.019 52.3566 472.423 50.3567 470.975 47.4158C470.057 45.5506 469.988 45.1972 469.988 42.3962C469.988 39.5962 470.057 39.2414 470.974 37.3798C472.734 33.8034 475.854 31.8252 480.213 31.5204C481.697 31.4168 482.873 31.5242 484.114 31.8795C485.858 32.3779 488.141 33.6282 488.141 34.0852C488.141 34.213 487.762 34.7706 487.3 35.3246L486.459 36.3319L485.253 35.5336C481.504 33.0528 476.357 34.175 474.133 37.9576C473.366 39.2624 473.288 39.6595 473.289 42.2461C473.289 44.6124 473.403 45.3077 473.954 46.3396C474.832 47.9835 476.75 49.5885 478.383 50.0457C479.88 50.4648 483.655 50.3251 484.915 49.8035C485.734 49.4649 485.74 49.4391 485.74 46.6041V43.7462H483.49H481.24V42.546V41.3458H484.949H488.659L488.713 46.2812C488.766 51.127 488.755 51.2246 488.079 51.6566C486.219 52.8455 480.908 53.5973 478.279 53.0434ZM520.369 53.0548C517.012 52.3432 514.477 50.3495 513.049 47.2981C509.614 39.9567 514.07 32.011 521.904 31.5082C526.676 31.2021 530.501 33.4077 532.458 37.5943C533.204 39.1907 533.299 39.7352 533.299 42.4018C533.299 45.195 533.229 45.5514 532.313 47.4119C530.592 50.9075 527.603 52.8579 523.487 53.1712C522.448 53.2502 521.044 53.1976 520.369 53.0548ZM525.582 49.8813C528.306 48.7451 530.142 45.7935 530.144 42.5452C530.147 40.0185 529.748 38.6536 528.558 37.0932C525.882 33.5847 520.532 33.2426 517.395 36.3794C513.63 40.1441 514.729 47.392 519.415 49.7119C520.977 50.4849 523.94 50.5663 525.582 49.8813ZM543.866 53.038C541.401 52.4177 539.923 51.1528 538.791 48.6963C538.137 47.2766 538.095 46.7888 538.006 39.6197L537.912 32.0433H539.431H540.95V38.7401C540.95 46.3554 541.229 47.9703 542.769 49.266C545.515 51.5764 549.69 50.4397 550.812 47.0762C551.027 46.4322 551.152 43.4735 551.152 39.0498V32.0433H552.652H554.153V39.3569C554.153 47.2392 554.012 48.1628 552.478 50.3807C550.95 52.5883 546.965 53.8179 543.866 53.038ZM494.142 42.3694V31.9916L499.018 32.0926C503.568 32.1867 503.982 32.2438 505.217 32.9436C506.893 33.8929 507.683 34.9602 507.925 36.6007C508.36 39.548 507.477 41.3539 505.019 42.5453C504.167 42.9578 503.465 43.378 503.457 43.479C503.45 43.5799 504.501 45.4028 505.794 47.5297C509.324 53.3365 509.176 52.7471 507.109 52.7471H505.352L502.808 48.3213L500.264 43.8955L498.703 43.8048L497.142 43.7141V48.2306V52.7471H495.642H494.142V42.3694ZM502.605 40.7329C504.002 40.3447 504.944 39.1779 504.944 37.8342C504.944 35.5252 503.619 34.7438 499.703 34.7438H497.142V37.6943C497.142 39.3171 497.232 40.7349 497.342 40.8449C497.653 41.1559 501.366 41.0768 502.605 40.7329ZM559.854 42.3688V31.9905L564.58 32.096C569.874 32.2143 571.142 32.5983 572.491 34.4921C573.418 35.7951 573.615 38.4807 572.916 40.3102C571.971 42.7843 569.941 43.7453 565.66 43.7453H562.854V48.2461V52.7469H561.354H559.854V42.3688ZM568.555 40.5194C570.513 39.5411 570.87 37.1144 569.277 35.6169C568.598 34.9785 568.177 34.8816 565.681 34.7898L562.854 34.6859V37.8654V41.0449L565.18 41.0444C566.793 41.0441 567.827 40.8831 568.555 40.5194Z" fill="#111111"/>
</svg>
